# xmcd
#
# Track frame offsets:
#	150
#	13420
#	28443
#	41923
#	54189
#	66149
#	81764
#	93564
#	106303
#	123535
#	136940
#	151837
#	169851
#	183436
#	195779
#	208065
#	224868
#	236915
#	249455
#	262172
#	282614
#	298969
#	315699
#	326842
#
# Disc length: 4639
#
# Revision: 2
# Processed by: cddbd v1.5.1PL0 Copyright (c) Steve Scherf et al.
# Submitted via: ExactAudioCopy v0.90b4
# Normalized: r0:DSETVAR1,TDELIM( - ),TSWAP
#
DISCID=81121d18
DTITLE=Various Artist - Best of Country and Western - CD1-3
DYEAR=2002
DGENRE=Country
TTITLE0=Gordon Lightfoot - Long Way Back Home
TTITLE1=Merle Van Doom - I Love You
TTITLE2=Merle Haggard - Walk A Mile In My Shoes
TTITLE3=Kenny Rogers - Reuben James
TTITLE4=Billy Joe Spears - Look What They've Done To My Song, Ma
TTITLE5=Patrizia Patella - L.A. International Airport
TTITLE6=Dolly Parton - Making Believe
TTITLE7=Lynn Anderson - Rose Garden
TTITLE8=Rolle - True To The End
TTITLE9=Glen Campbell - Rhinestone Cowboy
TTITLE10=Jeannie C. Riley - Harper Valley P.T.A.
TTITLE11=Ricky Nelson - Garden Party
TTITLE12=Willie Nelson and Leon Russell - Heartbreak Hotel
TTITLE13=Charlie Rich - Behind Closed Doors
TTITLE14=Johnny Cash - Walk The Line
TTITLE15=Rolle - Only Two Hearts
TTITLE16=Peter Zoot and Patrizia Patella - Jackson
TTITLE17=Leroy Van Dyke - The Auctioneer
TTITLE18=Ad and Karin - Somwhere Between
TTITLE19=Rolle - Yesterday Street
TTITLE20=Tina Turner and Charly McCoy - Lay It Down
TTITLE21=Studio Orchestra Kapstadt - Once Upon A Time In The West
TTITLE22=The Wild Swans - Blue Moon Of Kentucky
TTITLE23=The Flying Train - New Kid In Town
EXTD=
EXTT0=
EXTT1=
EXTT2=
EXTT3=
EXTT4=
EXTT5=
EXTT6=
EXTT7=
EXTT8=
EXTT9=
EXTT10=
EXTT11=
EXTT12=
EXTT13=
EXTT14=
EXTT15=
EXTT16=
EXTT17=
EXTT18=
EXTT19=
EXTT20=
EXTT21=
EXTT22=
EXTT23=
PLAYORDER=
